<svg xmlns="http://www.w3.org/2000/svg" xmlns:xlink="http://www.w3.org/1999/xlink" width="1440" viewBox="0 0 1440 810" height="810" version="1.0"><defs><g id="g"><path d="M 52.199219 0 L 52.199219 -64.351562 L 39.328125 -64.351562 L 39.328125 -38.609375 L 20.070312 -38.609375 L 20.070312 -64.351562 L 7.199219 -64.351562 L 7.199219 0 L 20.070312 0 L 20.070312 -25.738281 L 39.328125 -25.738281 L 39.328125 0 Z M 52.199219 0"/></g><g id="h"><path d="M 20.070312 0 L 20.070312 -64.351562 L 7.199219 -64.351562 L 7.199219 0 Z M 20.070312 0"/></g><g id="i"><path d="M 18.449219 -9.898438 L 5.128906 -9.898438 L 1.351562 10.441406 L 11.429688 10.441406 Z M 18.449219 -9.898438"/></g><g id="k"><path d="M 36.71875 -37.078125 L 11.339844 -65.339844 L 7.199219 -65.339844 L 7.199219 0 L 20.25 0 L 20.25 -35.910156 L 36.71875 -18.628906 L 53.191406 -35.910156 L 53.101562 0 L 66.148438 0 L 66.148438 -65.339844 L 62.101562 -65.339844 Z M 36.71875 -37.078125"/></g><g id="l"><path d="M 22.949219 0 L 35.730469 0 L 35.730469 -28.980469 L 58.230469 -64.351562 L 42.480469 -64.351562 L 29.339844 -42.210938 L 16.199219 -64.351562 L 0.539062 -64.351562 L 22.949219 -28.980469 Z M 22.949219 0"/></g><g id="m"><path d="M 20.070312 -35.011719 L 52.648438 1.351562 L 56.070312 1.351562 L 56.070312 -64.261719 L 43.109375 -64.261719 L 43.109375 -27.898438 L 10.621094 -65.699219 L 7.199219 -65.699219 L 7.199219 0 L 20.070312 0 Z M 20.070312 -35.011719"/></g><g id="n"><path d="M 1.441406 0 L 16.019531 0 L 18.539062 -6.929688 L 39.871094 -6.929688 L 42.480469 0 L 56.96875 0 L 29.878906 -66.691406 L 28.53125 -66.691406 Z M 23.21875 -18.988281 L 29.25 -35.730469 L 35.101562 -18.988281 Z M 23.21875 -18.988281"/></g><g id="o"><path d="M 40.5 0 L 40.5 -12.871094 L 20.070312 -12.871094 L 20.070312 -25.738281 L 36.988281 -25.738281 L 36.988281 -38.609375 L 20.070312 -38.609375 L 20.070312 -51.480469 L 39.421875 -51.480469 L 39.421875 -64.351562 L 7.199219 -64.351562 L 7.199219 0 Z M 40.5 0"/></g><g id="p"><path d="M 4.230469 -4.140625 C 12.960938 0.359375 20.96875 0.808594 24.570312 0.539062 C 36.628906 -0.0898438 44.011719 -8.28125 44.011719 -18.988281 C 44.011719 -29.25 35.371094 -35.011719 25.378906 -38.699219 C 21.691406 -39.960938 18.539062 -41.578125 18.179688 -45.179688 C 17.910156 -48.78125 19.980469 -52.109375 24.570312 -52.378906 C 26.550781 -52.46875 30.601562 -52.558594 37.710938 -49.679688 L 39.328125 -62.101562 C 31.050781 -64.980469 26.640625 -64.980469 23.308594 -64.800781 C 12.601562 -64.261719 5.128906 -55.980469 5.128906 -45.179688 C 5.128906 -34.378906 14.128906 -29.25 24.210938 -25.558594 C 27.808594 -24.300781 30.601562 -22.679688 30.871094 -18.988281 C 31.230469 -15.480469 27.988281 -12.78125 24.210938 -12.511719 C 21.238281 -12.238281 13.230469 -12.421875 5.851562 -17.640625 Z M 4.230469 -4.140625"/></g><g id="q"><path d="M 39.238281 0 L 53.820312 0 L 38.878906 -26.550781 C 57.78125 -32.039062 55.53125 -64.351562 32.578125 -64.351562 L 7.199219 -64.351562 L 7.199219 0 L 20.070312 0 L 20.070312 -24.570312 L 26.28125 -24.570312 Z M 20.070312 -37.078125 L 20.070312 -51.480469 L 31.410156 -51.480469 C 40.140625 -51.480469 40.140625 -37.078125 31.410156 -37.078125 Z M 20.070312 -37.078125"/></g><g id="r"><path d="M 30.691406 0 L 30.691406 -51.480469 L 46.710938 -51.480469 L 46.710938 -64.261719 L 1.800781 -64.261719 L 1.800781 -51.480469 L 17.820312 -51.480469 L 17.820312 0 Z M 30.691406 0"/></g><g id="s"><path d="M 52.199219 0 L 52.199219 -64.351562 L 39.328125 -64.351562 L 39.328125 -38.609375 L 20.070312 -38.609375 L 20.070312 -64.351562 L 7.199219 -64.351562 L 7.199219 0 L 20.070312 0 L 20.070312 -25.738281 L 39.328125 -25.738281 L 39.328125 0 Z M 52.199219 0"/></g><g id="t"><path d="M 9.898438 -13.859375 C 0.179688 -13.859375 0.179688 0.628906 9.898438 0.628906 C 19.53125 0.628906 19.800781 -13.859375 9.898438 -13.859375 Z M 9.898438 -13.859375"/></g><clipPath id="a"><path d="M 0 353 L 1440 353 L 1440 810 L 0 810 Z M 0 353"/></clipPath><clipPath id="b"><path d="M 1999.160156 1300.0625 L -235.964844 1761.457031 L -558.925781 196.945312 L 1676.199219 -264.449219 Z M 1999.160156 1300.0625"/></clipPath><clipPath id="c"><path d="M 1676.15625 -264.65625 L -558.96875 196.738281 L -236.007812 1761.25 L 1999.117188 1299.859375 Z M 1676.15625 -264.65625"/></clipPath><clipPath id="d"><path d="M 1676.15625 -264.65625 L -558.96875 196.738281 L -236.007812 1761.25 L 1999.117188 1299.859375 Z M 1676.15625 -264.65625"/></clipPath><clipPath id="e"><path d="M 1536.109375 914.058594 C 1340.289062 950.589844 1068.527344 1491.230469 529.585938 1406.917969 C -9.355469 1322.601562 -419.738281 871.210938 -208.375 476.335938 C 2.988281 81.460938 201.566406 765.332031 672.417969 717.757812 C 1143.265625 670.183594 1206.074219 460.675781 1501.621094 473.613281 C 1797.171875 486.546875 1905.347656 845.621094 1536.109375 914.058594 Z M 1536.109375 914.058594"/></clipPath><linearGradient x1="136.69" gradientTransform="matrix(-9.33246 1.92649 1.9264 9.33204 1629.906 1.51)" xmlns:xlink="http://www.w3.org/1999/xlink" y1="106.764" x2="50.174" gradientUnits="userSpaceOnUse" y2="-43.084" xlink:type="simple" xlink:actuate="onLoad" id="f" xlink:show="other"><stop stop-color="#F8049C" offset="0"/><stop stop-color="#F8049C" offset=".031"/><stop stop-color="#F8049C" offset=".047"/><stop stop-color="#F8049C" offset=".055"/><stop stop-color="#F8069B" offset=".059"/><stop stop-color="#F8079B" offset=".063"/><stop stop-color="#F8089A" offset=".066"/><stop stop-color="#F80A9A" offset=".07"/><stop stop-color="#F80B99" offset=".074"/><stop stop-color="#F80D99" offset=".078"/><stop stop-color="#F80E98" offset=".082"/><stop stop-color="#F80F98" offset=".086"/><stop stop-color="#F81197" offset=".09"/><stop stop-color="#F81297" offset=".094"/><stop stop-color="#F81496" offset=".098"/><stop stop-color="#F91596" offset=".102"/><stop stop-color="#F91695" offset=".105"/><stop stop-color="#F91895" offset=".109"/><stop stop-color="#F91994" offset=".113"/><stop stop-color="#F91A94" offset=".117"/><stop stop-color="#F91C93" offset=".121"/><stop stop-color="#F91D93" offset=".125"/><stop stop-color="#F91F92" offset=".129"/><stop stop-color="#F92092" offset=".133"/><stop stop-color="#F92191" offset=".137"/><stop stop-color="#F92391" offset=".141"/><stop stop-color="#F92490" offset=".145"/><stop stop-color="#F92690" offset=".148"/><stop stop-color="#F9278F" offset=".152"/><stop stop-color="#F9288F" offset=".156"/><stop stop-color="#F92A8E" offset=".16"/><stop stop-color="#F92B8E" offset=".164"/><stop stop-color="#F92D8D" offset=".168"/><stop stop-color="#F92E8D" offset=".172"/><stop stop-color="#F92F8C" offset=".176"/><stop stop-color="#F9318C" offset=".18"/><stop stop-color="#F9328B" offset=".184"/><stop stop-color="#F9338B" offset=".188"/><stop stop-color="#F9358A" offset=".191"/><stop stop-color="#F9368A" offset=".195"/><stop stop-color="#F93889" offset=".199"/><stop stop-color="#F93989" offset=".203"/><stop stop-color="#F93A88" offset=".207"/><stop stop-color="#F93C88" offset=".211"/><stop stop-color="#F93D87" offset=".215"/><stop stop-color="#F93F86" offset=".219"/><stop stop-color="#FA4086" offset=".223"/><stop stop-color="#FA4185" offset=".227"/><stop stop-color="#FA4385" offset=".23"/><stop stop-color="#FA4484" offset=".234"/><stop stop-color="#FA4684" offset=".238"/><stop stop-color="#FA4783" offset=".242"/><stop stop-color="#FA4883" offset=".246"/><stop stop-color="#FA4A82" offset=".25"/><stop stop-color="#FA4B82" offset=".254"/><stop stop-color="#FA4C81" offset=".258"/><stop stop-color="#FA4E81" offset=".262"/><stop stop-color="#FA4F80" offset=".266"/><stop stop-color="#FA5180" offset=".27"/><stop stop-color="#FA527F" offset=".273"/><stop stop-color="#FA537F" offset=".277"/><stop stop-color="#FA557E" offset=".281"/><stop stop-color="#FA567E" offset=".285"/><stop stop-color="#FA587D" offset=".289"/><stop stop-color="#FA597D" offset=".293"/><stop stop-color="#FA5A7C" offset=".297"/><stop stop-color="#FA5C7C" offset=".301"/><stop stop-color="#FA5D7B" offset=".305"/><stop stop-color="#FA5F7B" offset=".309"/><stop stop-color="#FA607A" offset=".313"/><stop stop-color="#FA617A" offset=".316"/><stop stop-color="#FA6379" offset=".32"/><stop stop-color="#FA6479" offset=".324"/><stop stop-color="#FA6578" offset=".328"/><stop stop-color="#FA6778" offset=".332"/><stop stop-color="#FA6877" offset=".336"/><stop stop-color="#FA6A77" offset=".34"/><stop stop-color="#FB6B76" offset=".344"/><stop stop-color="#FB6C76" offset=".348"/><stop stop-color="#FB6E75" offset=".352"/><stop stop-color="#FB6F75" offset=".355"/><stop stop-color="#FB7174" offset=".359"/><stop stop-color="#FB7274" offset=".363"/><stop stop-color="#FB7373" offset=".367"/><stop stop-color="#FB7573" offset=".371"/><stop stop-color="#FB7672" offset=".375"/><stop stop-color="#FB7871" offset=".379"/><stop stop-color="#FB7971" offset=".383"/><stop stop-color="#FB7A70" offset=".387"/><stop stop-color="#FB7C70" offset=".391"/><stop stop-color="#FB7D6F" offset=".395"/><stop stop-color="#FB7E6F" offset=".398"/><stop stop-color="#FB806E" offset=".402"/><stop stop-color="#FB816E" offset=".406"/><stop stop-color="#FB836D" offset=".41"/><stop stop-color="#FB846D" offset=".414"/><stop stop-color="#FB856C" offset=".418"/><stop stop-color="#FB876C" offset=".422"/><stop stop-color="#FB886B" offset=".426"/><stop stop-color="#FB8A6B" offset=".43"/><stop stop-color="#FB8B6A" offset=".434"/><stop stop-color="#FB8C6A" offset=".438"/><stop stop-color="#FB8E69" offset=".441"/><stop stop-color="#FB8F69" offset=".445"/><stop stop-color="#FB9168" offset=".449"/><stop stop-color="#FB9268" offset=".453"/><stop stop-color="#FB9367" offset=".457"/><stop stop-color="#FB9567" offset=".461"/><stop stop-color="#FB9666" offset=".465"/><stop stop-color="#FC9766" offset=".469"/><stop stop-color="#FC9965" offset=".473"/><stop stop-color="#FC9A65" offset=".477"/><stop stop-color="#FC9C64" offset=".48"/><stop stop-color="#FC9D64" offset=".484"/><stop stop-color="#FC9E63" offset=".488"/><stop stop-color="#FCA063" offset=".492"/><stop stop-color="#FCA162" offset=".496"/><stop stop-color="#FCA362" offset=".5"/><stop stop-color="#FCA461" offset=".504"/><stop stop-color="#FCA561" offset=".508"/><stop stop-color="#FCA760" offset=".512"/><stop stop-color="#FCA860" offset=".516"/><stop stop-color="#FCAA5F" offset=".52"/><stop stop-color="#FCAB5F" offset=".523"/><stop stop-color="#FCAC5E" offset=".527"/><stop stop-color="#FCAE5E" offset=".531"/><stop stop-color="#FCAF5D" offset=".535"/><stop stop-color="#FCB05C" offset=".539"/><stop stop-color="#FCB25C" offset=".543"/><stop stop-color="#FCB35B" offset=".547"/><stop stop-color="#FCB55B" offset=".551"/><stop stop-color="#FCB65A" offset=".555"/><stop stop-color="#FCB75A" offset=".559"/><stop stop-color="#FCB959" offset=".563"/><stop stop-color="#FCBA59" offset=".566"/><stop stop-color="#FCBC58" offset=".57"/><stop stop-color="#FCBD58" offset=".574"/><stop stop-color="#FCBE57" offset=".578"/><stop stop-color="#FCC057" offset=".582"/><stop stop-color="#FCC156" offset=".586"/><stop stop-color="#FDC356" offset=".59"/><stop stop-color="#FDC455" offset=".594"/><stop stop-color="#FDC555" offset=".598"/><stop stop-color="#FDC754" offset=".602"/><stop stop-color="#FDC854" offset=".605"/><stop stop-color="#FDC953" offset=".609"/><stop stop-color="#FDCB53" offset=".613"/><stop stop-color="#FDCC52" offset=".617"/><stop stop-color="#FDCE52" offset=".621"/><stop stop-color="#FDCF51" offset=".625"/><stop stop-color="#FDD051" offset=".629"/><stop stop-color="#FDD250" offset=".633"/><stop stop-color="#FDD350" offset=".637"/><stop stop-color="#FDD54F" offset=".641"/><stop stop-color="#FDD54F" offset=".656"/><stop stop-color="#FDD54F" offset=".688"/><stop stop-color="#FDD54F" offset=".75"/><stop stop-color="#FDD54F" offset="1"/></linearGradient></defs><path fill="#FFF" d="M-144 -81H1584V891H-144z"/><path fill="#FFF" d="M-144 -81H1584V891H-144z"/><path fill="#FFF" d="M-144 -81H1584V891H-144z"/><g clip-path="url(#a)"><g clip-path="url(#b)"><g clip-path="url(#c)"><g clip-path="url(#d)"><g clip-path="url(#e)"><path fill="url(#f)" d="M 1381.144531 -203.648438 L 1584.246094 780.222656 L 58.855469 1095.109375 L -144.246094 111.238281 Z M 1381.144531 -203.648438"/></g></g></g></g></g><g fill="#FFF"><use x="206.01" y="130.694" xmlns:xlink="http://www.w3.org/1999/xlink" xlink:href="#g" xlink:type="simple" xlink:actuate="onLoad" xlink:show="embed"/></g><g fill="#FFF"><use x="265.5" y="130.694" xmlns:xlink="http://www.w3.org/1999/xlink" xlink:href="#h" xlink:type="simple" xlink:actuate="onLoad" xlink:show="embed"/></g><g fill="#FFF"><use x="292.86" y="130.694" xmlns:xlink="http://www.w3.org/1999/xlink" xlink:href="#i" xlink:type="simple" xlink:actuate="onLoad" xlink:show="embed"/></g><g fill="#FFF"><use x="314.46" y="130.694" xmlns:xlink="http://www.w3.org/1999/xlink" xlink:href="#j" xlink:type="simple" xlink:actuate="onLoad" xlink:show="embed"/></g><g fill="#FFF"><use x="340.02" y="130.694" xmlns:xlink="http://www.w3.org/1999/xlink" xlink:href="#k" xlink:type="simple" xlink:actuate="onLoad" xlink:show="embed"/></g><g fill="#FFF"><use x="413.46" y="130.694" xmlns:xlink="http://www.w3.org/1999/xlink" xlink:href="#l" xlink:type="simple" xlink:actuate="onLoad" xlink:show="embed"/></g><g fill="#FFF"><use x="471.87" y="130.694" xmlns:xlink="http://www.w3.org/1999/xlink" xlink:href="#j" xlink:type="simple" xlink:actuate="onLoad" xlink:show="embed"/></g><g fill="#FFF"><use x="497.429" y="130.694" xmlns:xlink="http://www.w3.org/1999/xlink" xlink:href="#m" xlink:type="simple" xlink:actuate="onLoad" xlink:show="embed"/></g><g fill="#FFF"><use x="560.789" y="130.694" xmlns:xlink="http://www.w3.org/1999/xlink" xlink:href="#n" xlink:type="simple" xlink:actuate="onLoad" xlink:show="embed"/></g><g fill="#FFF"><use x="619.559" y="130.694" xmlns:xlink="http://www.w3.org/1999/xlink" xlink:href="#k" xlink:type="simple" xlink:actuate="onLoad" xlink:show="embed"/></g><g fill="#FFF"><use x="692.999" y="130.694" xmlns:xlink="http://www.w3.org/1999/xlink" xlink:href="#o" xlink:type="simple" xlink:actuate="onLoad" xlink:show="embed"/></g><g fill="#FFF"><use x="738.359" y="130.694" xmlns:xlink="http://www.w3.org/1999/xlink" xlink:href="#j" xlink:type="simple" xlink:actuate="onLoad" xlink:show="embed"/></g><g fill="#FFF"><use x="763.919" y="130.694" xmlns:xlink="http://www.w3.org/1999/xlink" xlink:href="#h" xlink:type="simple" xlink:actuate="onLoad" xlink:show="embed"/></g><g fill="#FFF"><use x="791.279" y="130.694" xmlns:xlink="http://www.w3.org/1999/xlink" xlink:href="#p" xlink:type="simple" xlink:actuate="onLoad" xlink:show="embed"/></g><g fill="#FFF"><use x="838.889" y="130.694" xmlns:xlink="http://www.w3.org/1999/xlink" xlink:href="#j" xlink:type="simple" xlink:actuate="onLoad" xlink:show="embed"/></g><g fill="#FFF"><use x="864.449" y="130.694" xmlns:xlink="http://www.w3.org/1999/xlink" xlink:href="#q" xlink:type="simple" xlink:actuate="onLoad" xlink:show="embed"/></g><g fill="#FFF"><use x="919.619" y="130.694" xmlns:xlink="http://www.w3.org/1999/xlink" xlink:href="#o" xlink:type="simple" xlink:actuate="onLoad" xlink:show="embed"/></g><g fill="#FFF"><use x="964.979" y="130.694" xmlns:xlink="http://www.w3.org/1999/xlink" xlink:href="#o" xlink:type="simple" xlink:actuate="onLoad" xlink:show="embed"/></g><g fill="#FFF"><use x="1010.339" y="130.694" xmlns:xlink="http://www.w3.org/1999/xlink" xlink:href="#r" xlink:type="simple" xlink:actuate="onLoad" xlink:show="embed"/></g><g fill="#FFF"><use x="1059.569" y="130.694" xmlns:xlink="http://www.w3.org/1999/xlink" xlink:href="#o" xlink:type="simple" xlink:actuate="onLoad" xlink:show="embed"/></g><g fill="#FFF"><use x="1104.929" y="130.694" xmlns:xlink="http://www.w3.org/1999/xlink" xlink:href="#p" xlink:type="simple" xlink:actuate="onLoad" xlink:show="embed"/></g><g fill="#FFF"><use x="1152.539" y="130.694" xmlns:xlink="http://www.w3.org/1999/xlink" xlink:href="#s" xlink:type="simple" xlink:actuate="onLoad" xlink:show="embed"/></g><g fill="#FFF"><use x="1212.029" y="130.694" xmlns:xlink="http://www.w3.org/1999/xlink" xlink:href="#t" xlink:type="simple" xlink:actuate="onLoad" xlink:show="embed"/></g></svg>