<svg xmlns="http://www.w3.org/2000/svg" xmlns:xlink="http://www.w3.org/1999/xlink" width="1440" viewBox="0 0 1440 810" height="810" version="1.0"><defs><g id="g"><path d="M 52.199219 0 L 52.199219 -64.351562 L 39.328125 -64.351562 L 39.328125 -38.609375 L 20.070312 -38.609375 L 20.070312 -64.351562 L 7.199219 -64.351562 L 7.199219 0 L 20.070312 0 L 20.070312 -25.738281 L 39.328125 -25.738281 L 39.328125 0 Z M 52.199219 0"/></g><g id="h"><path d="M 20.070312 0 L 20.070312 -64.351562 L 7.199219 -64.351562 L 7.199219 0 Z M 20.070312 0"/></g><g id="i"><path d="M 18.449219 -9.898438 L 5.128906 -9.898438 L 1.351562 10.441406 L 11.429688 10.441406 Z M 18.449219 -9.898438"/></g><g id="k"><path d="M 36.71875 -37.078125 L 11.339844 -65.339844 L 7.199219 -65.339844 L 7.199219 0 L 20.25 0 L 20.25 -35.910156 L 36.71875 -18.628906 L 53.191406 -35.910156 L 53.101562 0 L 66.148438 0 L 66.148438 -65.339844 L 62.101562 -65.339844 Z M 36.71875 -37.078125"/></g><g id="l"><path d="M 22.949219 0 L 35.730469 0 L 35.730469 -28.980469 L 58.230469 -64.351562 L 42.480469 -64.351562 L 29.339844 -42.210938 L 16.199219 -64.351562 L 0.539062 -64.351562 L 22.949219 -28.980469 Z M 22.949219 0"/></g><g id="m"><path d="M 20.070312 -35.011719 L 52.648438 1.351562 L 56.070312 1.351562 L 56.070312 -64.261719 L 43.109375 -64.261719 L 43.109375 -27.898438 L 10.621094 -65.699219 L 7.199219 -65.699219 L 7.199219 0 L 20.070312 0 Z M 20.070312 -35.011719"/></g><g id="n"><path d="M 1.441406 0 L 16.019531 0 L 18.539062 -6.929688 L 39.871094 -6.929688 L 42.480469 0 L 56.96875 0 L 29.878906 -66.691406 L 28.53125 -66.691406 Z M 23.21875 -18.988281 L 29.25 -35.730469 L 35.101562 -18.988281 Z M 23.21875 -18.988281"/></g><g id="o"><path d="M 40.5 0 L 40.5 -12.871094 L 20.070312 -12.871094 L 20.070312 -25.738281 L 36.988281 -25.738281 L 36.988281 -38.609375 L 20.070312 -38.609375 L 20.070312 -51.480469 L 39.421875 -51.480469 L 39.421875 -64.351562 L 7.199219 -64.351562 L 7.199219 0 Z M 40.5 0"/></g><g id="p"><path d="M 4.230469 -4.140625 C 12.960938 0.359375 20.96875 0.808594 24.570312 0.539062 C 36.628906 -0.0898438 44.011719 -8.28125 44.011719 -18.988281 C 44.011719 -29.25 35.371094 -35.011719 25.378906 -38.699219 C 21.691406 -39.960938 18.539062 -41.578125 18.179688 -45.179688 C 17.910156 -48.78125 19.980469 -52.109375 24.570312 -52.378906 C 26.550781 -52.46875 30.601562 -52.558594 37.710938 -49.679688 L 39.328125 -62.101562 C 31.050781 -64.980469 26.640625 -64.980469 23.308594 -64.800781 C 12.601562 -64.261719 5.128906 -55.980469 5.128906 -45.179688 C 5.128906 -34.378906 14.128906 -29.25 24.210938 -25.558594 C 27.808594 -24.300781 30.601562 -22.679688 30.871094 -18.988281 C 31.230469 -15.480469 27.988281 -12.78125 24.210938 -12.511719 C 21.238281 -12.238281 13.230469 -12.421875 5.851562 -17.640625 Z M 4.230469 -4.140625"/></g><g id="q"><path d="M 39.238281 0 L 53.820312 0 L 38.878906 -26.550781 C 57.78125 -32.039062 55.53125 -64.351562 32.578125 -64.351562 L 7.199219 -64.351562 L 7.199219 0 L 20.070312 0 L 20.070312 -24.570312 L 26.28125 -24.570312 Z M 20.070312 -37.078125 L 20.070312 -51.480469 L 31.410156 -51.480469 C 40.140625 -51.480469 40.140625 -37.078125 31.410156 -37.078125 Z M 20.070312 -37.078125"/></g><g id="r"><path d="M 30.691406 0 L 30.691406 -51.480469 L 46.710938 -51.480469 L 46.710938 -64.261719 L 1.800781 -64.261719 L 1.800781 -51.480469 L 17.820312 -51.480469 L 17.820312 0 Z M 30.691406 0"/></g><g id="s"><path d="M 52.199219 0 L 52.199219 -64.351562 L 39.328125 -64.351562 L 39.328125 -38.609375 L 20.070312 -38.609375 L 20.070312 -64.351562 L 7.199219 -64.351562 L 7.199219 0 L 20.070312 0 L 20.070312 -25.738281 L 39.328125 -25.738281 L 39.328125 0 Z M 52.199219 0"/></g><g id="t"><path d="M 9.898438 -13.859375 C 0.179688 -13.859375 0.179688 0.628906 9.898438 0.628906 C 19.53125 0.628906 19.800781 -13.859375 9.898438 -13.859375 Z M 9.898438 -13.859375"/></g><clipPath id="a"><path d="M 0 0 L 1440 0 L 1440 578 L 0 578 Z M 0 0"/></clipPath><clipPath id="b"><path d="M 1685.183594 1330.570312 L -475.824219 596.597656 L 37.933594 -916.039062 L 2198.941406 -182.066406 Z M 1685.183594 1330.570312"/></clipPath><clipPath id="c"><path d="M 1685.183594 1330.570312 L -475.824219 596.597656 L 37.933594 -916.039062 L 2198.941406 -182.066406 Z M 1685.183594 1330.570312"/></clipPath><clipPath id="d"><path d="M 1685.183594 1330.570312 L -475.824219 596.597656 L 37.933594 -916.039062 L 2198.941406 -182.066406 Z M 1685.183594 1330.570312"/></clipPath><clipPath id="e"><path d="M 1691.820312 143.582031 C 1502.015625 83.140625 1299.117188 -486.929688 753.890625 -469.839844 C 208.664062 -452.75 -254.339844 -55.511719 -93.375 362.449219 C 67.589844 780.410156 349.128906 126.308594 810.492188 231.683594 C 1271.859375 337.0625 1308.304688 552.722656 1603.1875 576.394531 C 1898.070312 600.066406 2049.777344 257.109375 1691.820312 143.582031 Z M 1691.820312 143.582031"/></clipPath><linearGradient x1="149.024" gradientTransform="matrix(-9.02299 -3.0646 3.06447 -9.02259 1672.169 1060.728)" xmlns:xlink="http://www.w3.org/1999/xlink" y1="128.128" x2="52.043" gradientUnits="userSpaceOnUse" y2="-39.847" xlink:type="simple" xlink:actuate="onLoad" id="f" xlink:show="other"><stop stop-color="#F8049C" offset="0"/><stop stop-color="#F8049C" offset=".125"/><stop stop-color="#F8049C" offset=".156"/><stop stop-color="#F8049C" offset=".172"/><stop stop-color="#F8059C" offset=".176"/><stop stop-color="#F8069B" offset=".18"/><stop stop-color="#F8079B" offset=".184"/><stop stop-color="#F8099A" offset=".188"/><stop stop-color="#F80A9A" offset=".191"/><stop stop-color="#F80C99" offset=".195"/><stop stop-color="#F80E99" offset=".199"/><stop stop-color="#F80F98" offset=".203"/><stop stop-color="#F81197" offset=".207"/><stop stop-color="#F81297" offset=".211"/><stop stop-color="#F81496" offset=".215"/><stop stop-color="#F91596" offset=".219"/><stop stop-color="#F91795" offset=".223"/><stop stop-color="#F91895" offset=".227"/><stop stop-color="#F91A94" offset=".23"/><stop stop-color="#F91C93" offset=".234"/><stop stop-color="#F91D93" offset=".238"/><stop stop-color="#F91F92" offset=".242"/><stop stop-color="#F92092" offset=".246"/><stop stop-color="#F92291" offset=".25"/><stop stop-color="#F92391" offset=".254"/><stop stop-color="#F92590" offset=".258"/><stop stop-color="#F9268F" offset=".262"/><stop stop-color="#F9288F" offset=".266"/><stop stop-color="#F92A8E" offset=".27"/><stop stop-color="#F92B8E" offset=".273"/><stop stop-color="#F92D8D" offset=".277"/><stop stop-color="#F92E8D" offset=".281"/><stop stop-color="#F9308C" offset=".285"/><stop stop-color="#F9318B" offset=".289"/><stop stop-color="#F9338B" offset=".293"/><stop stop-color="#F9348A" offset=".297"/><stop stop-color="#F9368A" offset=".301"/><stop stop-color="#F93889" offset=".305"/><stop stop-color="#F93988" offset=".309"/><stop stop-color="#F93B88" offset=".313"/><stop stop-color="#F93C87" offset=".316"/><stop stop-color="#F93E87" offset=".32"/><stop stop-color="#F93F86" offset=".324"/><stop stop-color="#FA4186" offset=".328"/><stop stop-color="#FA4285" offset=".332"/><stop stop-color="#FA4484" offset=".336"/><stop stop-color="#FA4684" offset=".34"/><stop stop-color="#FA4783" offset=".344"/><stop stop-color="#FA4983" offset=".348"/><stop stop-color="#FA4A82" offset=".352"/><stop stop-color="#FA4C82" offset=".355"/><stop stop-color="#FA4D81" offset=".359"/><stop stop-color="#FA4F80" offset=".363"/><stop stop-color="#FA5080" offset=".367"/><stop stop-color="#FA527F" offset=".371"/><stop stop-color="#FA547F" offset=".375"/><stop stop-color="#FA557E" offset=".379"/><stop stop-color="#FA577E" offset=".383"/><stop stop-color="#FA587D" offset=".387"/><stop stop-color="#FA5A7C" offset=".391"/><stop stop-color="#FA5B7C" offset=".395"/><stop stop-color="#FA5D7B" offset=".398"/><stop stop-color="#FA5E7B" offset=".402"/><stop stop-color="#FA607A" offset=".406"/><stop stop-color="#FA627A" offset=".41"/><stop stop-color="#FA6379" offset=".414"/><stop stop-color="#FA6578" offset=".418"/><stop stop-color="#FA6678" offset=".422"/><stop stop-color="#FA6877" offset=".426"/><stop stop-color="#FA6977" offset=".43"/><stop stop-color="#FA6B76" offset=".434"/><stop stop-color="#FB6C76" offset=".438"/><stop stop-color="#FB6E75" offset=".441"/><stop stop-color="#FB7074" offset=".445"/><stop stop-color="#FB7174" offset=".449"/><stop stop-color="#FB7373" offset=".453"/><stop stop-color="#FB7473" offset=".457"/><stop stop-color="#FB7672" offset=".461"/><stop stop-color="#FB7772" offset=".465"/><stop stop-color="#FB7971" offset=".469"/><stop stop-color="#FB7B70" offset=".473"/><stop stop-color="#FB7C70" offset=".477"/><stop stop-color="#FB7E6F" offset=".48"/><stop stop-color="#FB7F6F" offset=".484"/><stop stop-color="#FB816E" offset=".488"/><stop stop-color="#FB826E" offset=".492"/><stop stop-color="#FB846D" offset=".496"/><stop stop-color="#FB856C" offset=".5"/><stop stop-color="#FB876C" offset=".504"/><stop stop-color="#FB896B" offset=".508"/><stop stop-color="#FB8A6B" offset=".512"/><stop stop-color="#FB8C6A" offset=".516"/><stop stop-color="#FB8D6A" offset=".52"/><stop stop-color="#FB8F69" offset=".523"/><stop stop-color="#FB9068" offset=".527"/><stop stop-color="#FB9268" offset=".531"/><stop stop-color="#FB9367" offset=".535"/><stop stop-color="#FB9567" offset=".539"/><stop stop-color="#FC9766" offset=".543"/><stop stop-color="#FC9865" offset=".547"/><stop stop-color="#FC9A65" offset=".551"/><stop stop-color="#FC9B64" offset=".555"/><stop stop-color="#FC9D64" offset=".559"/><stop stop-color="#FC9E63" offset=".563"/><stop stop-color="#FCA063" offset=".566"/><stop stop-color="#FCA162" offset=".57"/><stop stop-color="#FCA361" offset=".574"/><stop stop-color="#FCA561" offset=".578"/><stop stop-color="#FCA660" offset=".582"/><stop stop-color="#FCA860" offset=".586"/><stop stop-color="#FCA95F" offset=".59"/><stop stop-color="#FCAB5F" offset=".594"/><stop stop-color="#FCAC5E" offset=".598"/><stop stop-color="#FCAE5D" offset=".602"/><stop stop-color="#FCAF5D" offset=".605"/><stop stop-color="#FCB15C" offset=".609"/><stop stop-color="#FCB35C" offset=".613"/><stop stop-color="#FCB45B" offset=".617"/><stop stop-color="#FCB65B" offset=".621"/><stop stop-color="#FCB75A" offset=".625"/><stop stop-color="#FCB959" offset=".629"/><stop stop-color="#FCBA59" offset=".633"/><stop stop-color="#FCBC58" offset=".637"/><stop stop-color="#FCBD58" offset=".641"/><stop stop-color="#FCBF57" offset=".645"/><stop stop-color="#FCC157" offset=".648"/><stop stop-color="#FDC256" offset=".652"/><stop stop-color="#FDC455" offset=".656"/><stop stop-color="#FDC555" offset=".66"/><stop stop-color="#FDC754" offset=".664"/><stop stop-color="#FDC854" offset=".668"/><stop stop-color="#FDCA53" offset=".672"/><stop stop-color="#FDCB53" offset=".676"/><stop stop-color="#FDCD52" offset=".68"/><stop stop-color="#FDCF51" offset=".684"/><stop stop-color="#FDD051" offset=".688"/><stop stop-color="#FDD250" offset=".691"/><stop stop-color="#FDD350" offset=".695"/><stop stop-color="#FDD44F" offset=".699"/><stop stop-color="#FDD54F" offset=".703"/><stop stop-color="#FDD54F" offset=".719"/><stop stop-color="#FDD54F" offset=".75"/><stop stop-color="#FDD54F" offset="1"/></linearGradient></defs><g clip-path="url(#a)"><g clip-path="url(#b)"><g clip-path="url(#c)"><g clip-path="url(#d)"><g clip-path="url(#e)"><path fill="url(#f)" d="M 1291.066406 1218.914062 L 1677.648438 80.714844 L 148.933594 -438.503906 L -237.648438 699.695312 Z M 1291.066406 1218.914062"/></g></g></g></g></g><g fill="#FFF"><use x="206.01" y="130.694" xmlns:xlink="http://www.w3.org/1999/xlink" xlink:href="#g" xlink:type="simple" xlink:actuate="onLoad" xlink:show="embed"/></g><g fill="#FFF"><use x="265.5" y="130.694" xmlns:xlink="http://www.w3.org/1999/xlink" xlink:href="#h" xlink:type="simple" xlink:actuate="onLoad" xlink:show="embed"/></g><g fill="#FFF"><use x="292.86" y="130.694" xmlns:xlink="http://www.w3.org/1999/xlink" xlink:href="#i" xlink:type="simple" xlink:actuate="onLoad" xlink:show="embed"/></g><g fill="#FFF"><use x="314.46" y="130.694" xmlns:xlink="http://www.w3.org/1999/xlink" xlink:href="#j" xlink:type="simple" xlink:actuate="onLoad" xlink:show="embed"/></g><g fill="#FFF"><use x="340.02" y="130.694" xmlns:xlink="http://www.w3.org/1999/xlink" xlink:href="#k" xlink:type="simple" xlink:actuate="onLoad" xlink:show="embed"/></g><g fill="#FFF"><use x="413.46" y="130.694" xmlns:xlink="http://www.w3.org/1999/xlink" xlink:href="#l" xlink:type="simple" xlink:actuate="onLoad" xlink:show="embed"/></g><g fill="#FFF"><use x="471.87" y="130.694" xmlns:xlink="http://www.w3.org/1999/xlink" xlink:href="#j" xlink:type="simple" xlink:actuate="onLoad" xlink:show="embed"/></g><g fill="#FFF"><use x="497.429" y="130.694" xmlns:xlink="http://www.w3.org/1999/xlink" xlink:href="#m" xlink:type="simple" xlink:actuate="onLoad" xlink:show="embed"/></g><g fill="#FFF"><use x="560.789" y="130.694" xmlns:xlink="http://www.w3.org/1999/xlink" xlink:href="#n" xlink:type="simple" xlink:actuate="onLoad" xlink:show="embed"/></g><g fill="#FFF"><use x="619.559" y="130.694" xmlns:xlink="http://www.w3.org/1999/xlink" xlink:href="#k" xlink:type="simple" xlink:actuate="onLoad" xlink:show="embed"/></g><g fill="#FFF"><use x="692.999" y="130.694" xmlns:xlink="http://www.w3.org/1999/xlink" xlink:href="#o" xlink:type="simple" xlink:actuate="onLoad" xlink:show="embed"/></g><g fill="#FFF"><use x="738.359" y="130.694" xmlns:xlink="http://www.w3.org/1999/xlink" xlink:href="#j" xlink:type="simple" xlink:actuate="onLoad" xlink:show="embed"/></g><g fill="#FFF"><use x="763.919" y="130.694" xmlns:xlink="http://www.w3.org/1999/xlink" xlink:href="#h" xlink:type="simple" xlink:actuate="onLoad" xlink:show="embed"/></g><g fill="#FFF"><use x="791.279" y="130.694" xmlns:xlink="http://www.w3.org/1999/xlink" xlink:href="#p" xlink:type="simple" xlink:actuate="onLoad" xlink:show="embed"/></g><g fill="#FFF"><use x="838.889" y="130.694" xmlns:xlink="http://www.w3.org/1999/xlink" xlink:href="#j" xlink:type="simple" xlink:actuate="onLoad" xlink:show="embed"/></g><g fill="#FFF"><use x="864.449" y="130.694" xmlns:xlink="http://www.w3.org/1999/xlink" xlink:href="#q" xlink:type="simple" xlink:actuate="onLoad" xlink:show="embed"/></g><g fill="#FFF"><use x="919.619" y="130.694" xmlns:xlink="http://www.w3.org/1999/xlink" xlink:href="#o" xlink:type="simple" xlink:actuate="onLoad" xlink:show="embed"/></g><g fill="#FFF"><use x="964.979" y="130.694" xmlns:xlink="http://www.w3.org/1999/xlink" xlink:href="#o" xlink:type="simple" xlink:actuate="onLoad" xlink:show="embed"/></g><g fill="#FFF"><use x="1010.339" y="130.694" xmlns:xlink="http://www.w3.org/1999/xlink" xlink:href="#r" xlink:type="simple" xlink:actuate="onLoad" xlink:show="embed"/></g><g fill="#FFF"><use x="1059.569" y="130.694" xmlns:xlink="http://www.w3.org/1999/xlink" xlink:href="#o" xlink:type="simple" xlink:actuate="onLoad" xlink:show="embed"/></g><g fill="#FFF"><use x="1104.929" y="130.694" xmlns:xlink="http://www.w3.org/1999/xlink" xlink:href="#p" xlink:type="simple" xlink:actuate="onLoad" xlink:show="embed"/></g><g fill="#FFF"><use x="1152.539" y="130.694" xmlns:xlink="http://www.w3.org/1999/xlink" xlink:href="#s" xlink:type="simple" xlink:actuate="onLoad" xlink:show="embed"/></g><g fill="#FFF"><use x="1212.029" y="130.694" xmlns:xlink="http://www.w3.org/1999/xlink" xlink:href="#t" xlink:type="simple" xlink:actuate="onLoad" xlink:show="embed"/></g></svg>